<?xml version="1.0" encoding="UTF-8"?>
<svg id="Calque_2" data-name="Calque 2" xmlns="http://www.w3.org/2000/svg" viewBox="0 0 102.1 120.38">
  <defs>
    <style>
      .cls-1 {
        fill: #1e3b71;
      }
    </style>
  </defs>
  <g id="Calque_1-2" data-name="Calque 1">
    <g>
      <path class="cls-1" d="M44.81,94.57c2.44,8.13,4.98,16.26,7.42,24.39,.2,.81,.71,1.42,1.42,1.42h12.4c.81,0,1.22-.61,1.52-1.42,1.63-4.27,31.75-107.98,34.49-117.44,.2-.81-.61-1.52-1.42-1.52l-12.39,4.18c-.35,.12-.69,.26-1,.46-.49,.3-.68,.59-.83,1.2-1.12,3.66-25.35,83.65-31.15,103.06l-7.42-24.39-3.05,10.06Z"/>
      <path class="cls-1" d="M28.37,46.46c0,1.88-.45,3.63-1.23,5.11-1.4,2.69-3.89,4.47-6.71,4.47-4.39,0-7.94-4.29-7.94-9.58s3.55-9.59,7.94-9.59,7.94,4.3,7.94,9.59Z"/>
      <path class="cls-1" d="M25.63,20.87c-7.2,0-13.6,2.9-18.26,7.58C.87,34.97-1.25,44.44,.69,53.44c1.74,8.07,20.31,65.82,20.31,65.82,.2,.71,.81,1.12,1.53,1.12h6.91c.71,0,1.22-.61,1.42-1.43l7.32-24.39,3.05-10.06c2.54-8.54,5.78-19.19,8.18-27.12,.87-3.57,1.73-7.16,2.31-10.66,2.36-14.08-11.68-25.86-26.09-25.86Zm10.2,28.64c-.54,3-1.25,5.97-2.13,8.89-1.15,3.81-2.6,8.67-4.15,13.89-2.8,9.39-5.94,19.95-8.24,27.66-1.2-3.85-3.68-11.7-3.7-11.78l8.16-25.77c-5.34,3.4-14.12,1.98-18.09-6.17-1.58-2.67-2.12-6.35-1.91-9.43,.52-8.12,4.57-15.02,10.85-17.26,1.4-.5,2.89-.77,4.42-.77,5.62,0,10.54,3.59,13.19,8.93,1.81,3.65,2.32,7.81,1.6,11.81Z"/>
    </g>
  </g>
</svg>